<?xml version="1.0" encoding="utf-8"?>
<!-- Generator: Adobe Illustrator 24.0.1, SVG Export Plug-In . SVG Version: 6.00 Build 0)  -->
<svg version="1.1" id="Camada_1" xmlns="http://www.w3.org/2000/svg" xmlns:xlink="http://www.w3.org/1999/xlink" x="0px" y="0px"
	 viewBox="0 0 1080 1080" style="enable-background:new 0 0 1080 1080;" xml:space="preserve">
<style type="text/css">
	.st0{fill:#020202;}
</style>
<g>
	<path class="st0" d="M373.17,344.54c61.39,0,111.17-64.15,111.17-143.28c0-79.13-49.77-172.53-111.17-172.53
		c-61.4,0-111.17,93.39-111.17,172.53C262,280.39,311.78,344.54,373.17,344.54z"/>
	<path class="st0" d="M689.03,344.54c61.39,0,111.17-64.15,111.17-143.28c0-79.13-49.77-172.53-111.17-172.53
		s-111.17,93.39-111.17,172.53C577.87,280.39,627.64,344.54,689.03,344.54z"/>
	<path class="st0" d="M181.71,526.61c52.05-20.79,73.1-90.56,47.03-155.83C202.66,305.5,129.7,245.31,77.65,266.1
		C25.6,286.89,14.18,380.78,40.26,446.06C66.33,511.33,129.66,547.4,181.71,526.61z"/>
	<path class="st0" d="M857.03,660.27C783.37,555.59,665.4,449.89,531.1,449.89c-133.75,0-252.25,105.68-325.93,210.38
		c-31.44,44.68-59.86,92.89-71.78,146.36c-11.92,53.46-5.4,113.25,27.72,156.68c33.12,43.43,95.86,65.11,144.92,41.61
		c29.17-13.97,52.77-42.17,84.95-44.87c29.54-2.49,55.65,17.41,80.28,34.04c17.81,12.02,39.27,22.96,59.84,23.1
		c20.57-0.14,42.03-11.08,59.84-23.1c24.64-16.63,50.74-36.53,80.28-34.04c32.18,2.71,55.79,30.9,84.95,44.87
		c49.06,23.5,111.8,1.82,144.92-41.61c33.12-43.43,39.64-103.21,27.72-156.68C916.89,753.17,888.47,704.96,857.03,660.27z"/>
	<path class="st0" d="M984.56,266.1c-52.05-20.79-125.01,39.4-151.09,104.68s-5.02,135.05,47.03,155.83
		c52.05,20.79,115.38-15.27,141.45-80.55C1048.02,380.78,1036.6,286.89,984.56,266.1z"/>
</g>
</svg>
